<svg width="82" height="80" viewBox="0 0 82 80" fill="none" xmlns="http://www.w3.org/2000/svg">
<path fill-rule="evenodd" clip-rule="evenodd" d="M41.4513 38.2027C44.7646 34.1682 46.7534 29.0047 46.7534 23.3767C46.7534 17.7487 44.7646 12.5852 41.4513 8.55071C45.5084 4.04502 51.3872 1.21213 57.9276 1.21213C70.1688 1.21213 80.0922 11.1355 80.0922 23.3767C80.0922 29.5587 77.5613 35.1495 73.4792 39.1696C69.3474 35.4855 63.899 33.2465 57.9276 33.2465C51.9562 33.2465 46.5078 35.4855 42.376 39.1696C42.0582 38.8567 41.7498 38.5342 41.4513 38.2027ZM81.3043 23.3767C81.3043 29.8797 78.649 35.7625 74.3635 40C78.649 44.2375 81.3043 50.1203 81.3043 56.6232C81.3043 69.5338 70.8382 80 57.9276 80C51.084 80 44.9273 77.0592 40.6522 72.3724C36.377 77.0592 30.2203 80 23.3767 80C10.4661 80 0 69.5338 0 56.6232C0 50.1203 2.65531 44.2375 6.94084 40C2.65531 35.7625 0 29.8797 0 23.3767C0 10.4661 10.4661 0 23.3767 0C30.2203 0 36.377 2.94075 40.6522 7.62752C44.9273 2.94075 51.084 0 57.9276 0C70.8382 0 81.3043 10.4661 81.3043 23.3767ZM7.82509 39.1696C3.74298 35.1495 1.21213 29.5587 1.21213 23.3767C1.21213 11.1355 11.1355 1.21213 23.3767 1.21213C29.9172 1.21213 35.7959 4.04502 39.853 8.55071C36.5397 12.5852 34.5509 17.7487 34.5509 23.3767C34.5509 29.0047 36.5397 34.1682 39.853 38.2027C39.5545 38.5342 39.2461 38.8567 38.9283 39.1696C34.7965 35.4855 29.3481 33.2465 23.3767 33.2465C17.4053 33.2465 11.9569 35.4855 7.82509 39.1696ZM7.82509 40.8303C3.74298 44.8505 1.21213 50.4413 1.21213 56.6232C1.21213 68.8644 11.1355 78.7878 23.3767 78.7878C29.9172 78.7878 35.7959 75.9549 39.853 71.4492C36.5397 67.4148 34.5509 62.2513 34.5509 56.6232C34.5509 50.9952 36.5397 45.8317 39.853 41.7972C39.5545 41.4657 39.2461 41.1433 38.9283 40.8303C34.7965 44.5145 29.3481 46.7534 23.3767 46.7534C17.4053 46.7534 11.9569 44.5145 7.82509 40.8303ZM38.0378 40C34.1305 43.4487 28.998 45.5413 23.3767 45.5413C17.7554 45.5413 12.6229 43.4487 8.71561 40C12.6229 36.5513 17.7554 34.4587 23.3767 34.4587C28.998 34.4587 34.1305 36.5513 38.0378 40ZM39.8126 40C40.0999 40.284 40.3798 40.5755 40.6522 40.8741C40.9245 40.5755 41.2044 40.284 41.4917 40C41.2044 39.7159 40.9245 39.4244 40.6522 39.1259C40.3798 39.4244 40.0999 39.7159 39.8126 40ZM40.6522 42.7357C37.5936 46.5356 35.763 51.3657 35.763 56.6232C35.763 61.8808 37.5936 66.7109 40.6522 70.5107C43.7107 66.7109 45.5413 61.8808 45.5413 56.6232C45.5413 51.3657 43.7107 46.5356 40.6522 42.7357ZM41.4513 71.4492C44.7646 67.4148 46.7534 62.2513 46.7534 56.6232C46.7534 50.9952 44.7646 45.8317 41.4513 41.7972C41.7498 41.4657 42.0582 41.1433 42.376 40.8303C46.5078 44.5145 51.9562 46.7534 57.9276 46.7534C63.899 46.7534 69.3474 44.5145 73.4792 40.8303C77.5613 44.8505 80.0922 50.4413 80.0922 56.6232C80.0922 68.8644 70.1688 78.7878 57.9276 78.7878C51.3872 78.7878 45.5084 75.9549 41.4513 71.4492ZM57.9276 34.4587C63.5489 34.4587 68.6814 36.5513 72.5887 40C68.6814 43.4487 63.5489 45.5413 57.9276 45.5413C52.3063 45.5413 47.1738 43.4487 43.2665 40C47.1738 36.5513 52.3063 34.4587 57.9276 34.4587ZM40.6522 37.2642C37.5936 33.4643 35.763 28.6343 35.763 23.3767C35.763 18.1191 37.5936 13.2891 40.6522 9.48922C43.7107 13.2891 45.5413 18.1191 45.5413 23.3767C45.5413 28.6343 43.7107 33.4643 40.6522 37.2642Z" fill="white"/>
</svg>
