<svg width="32" height="32" viewBox="0 0 32 32" fill="none" xmlns="http://www.w3.org/2000/svg">
<path d="M23.428 21.2397C22.9704 21.2397 22.6109 21.5992 22.6109 22.0568V24.3611L17.7082 23.1354V20.4226C17.7082 19.965 17.3486 19.6054 16.8911 19.6054C16.4335 19.6054 16.0739 19.9813 16.0739 20.4226V22.9556H8.71984C6.46459 22.9556 4.63424 21.1253 4.63424 18.87V12.3331C4.63424 10.0778 6.46459 8.24747 8.71984 8.24747H16.0739V15.5198C16.0739 15.9774 16.4335 16.337 16.8911 16.337C17.3486 16.337 17.7082 15.9774 17.7082 15.5198V8.08405L22.6109 6.85837V8.98288C22.6109 9.44047 22.9704 9.8 23.428 9.8C23.8856 9.8 24.2451 9.44047 24.2451 8.98288V5.81245C24.2451 5.56732 24.1307 5.32218 23.9346 5.1751C23.7385 5.01167 23.477 4.96265 23.2319 5.02802L16.793 6.62957H8.71984C5.56576 6.62957 3 9.19533 3 12.3494V18.8864C3 22.0405 5.56576 24.6062 8.71984 24.6062H16.793L23.2319 26.2241C23.2973 26.2405 23.3626 26.2405 23.428 26.2405C23.6078 26.2405 23.7875 26.1751 23.9346 26.0607C24.1307 25.9136 24.2451 25.6685 24.2451 25.4233V22.0732C24.2451 21.6156 23.8856 21.2397 23.428 21.2397Z" fill="white"/>
<path d="M26.2553 15.5199L28.9518 12.8234C29.2786 12.4966 29.2786 11.99 28.9518 11.6631C28.6249 11.3363 28.1183 11.3363 27.7915 11.6631L25.095 14.3596L22.3985 11.6631C22.0716 11.3363 21.565 11.3363 21.2382 11.6631C20.9113 11.99 20.9113 12.4966 21.2382 12.8234L23.9347 15.5199L21.2382 18.2164C20.9113 18.5433 20.9113 19.0499 21.2382 19.3767C21.4016 19.5401 21.6141 19.6219 21.8102 19.6219C22.0063 19.6219 22.2351 19.5401 22.3821 19.3767L25.0786 16.6802L27.7751 19.3767C27.9386 19.5401 28.151 19.6219 28.3471 19.6219C28.5432 19.6219 28.772 19.5401 28.9191 19.3767C29.246 19.0499 29.246 18.5433 28.9191 18.2164L26.2553 15.5199Z" fill="white"/>
</svg>
