<svg width="32" height="32" viewBox="0 0 32 32" fill="none" xmlns="http://www.w3.org/2000/svg">
<path d="M28.9977 9.40642C28.5074 9.11226 27.9191 9.07957 27.4124 9.34105L25.6802 10.2072L16.1525 7.03677C15.9891 6.98774 15.8093 6.98774 15.6296 7.03677L6.10194 10.2072L4.36965 9.34105C3.86304 9.07957 3.25836 9.11226 2.78444 9.40642C2.29416 9.70058 2 10.2235 2 10.7955V15.5021C2 16.1232 2.34319 16.6788 2.89883 16.9566L5.26848 18.1333V20.4375C5.26848 20.7154 5.39922 20.9605 5.62802 21.1239C8.74942 23.1994 12.3121 24.2453 15.8911 24.2453C19.47 24.2453 23.0327 23.1994 26.1541 21.1239C26.3829 20.9768 26.5136 20.7154 26.5136 20.4375V18.1333L28.8833 16.9566C29.4389 16.6788 29.7821 16.1232 29.7821 15.5021V10.7955C29.7821 10.2235 29.4879 9.70058 28.9977 9.40642ZM3.63424 15.5021V10.7955L5.26848 11.6126V16.3193L3.63424 15.5021ZM24.8794 20.0126C19.372 23.4772 12.4101 23.4772 6.90272 20.0126V11.6617L15.8911 8.67101L24.8794 11.6617V20.0126ZM28.1479 15.5021L26.5136 16.3193V11.6126L28.1479 10.7955V15.5021Z" fill="white"/>
<path d="M11.2498 13.0342C10.8249 12.8871 10.3673 13.1159 10.2203 13.5572C10.0732 13.9821 10.302 14.4397 10.7432 14.5868C12.4101 15.1424 14.1588 15.4202 15.9074 15.4202C17.6561 15.4202 19.4047 15.1424 21.0716 14.5868C21.4965 14.4397 21.7253 13.9821 21.5946 13.5572C21.4475 13.1323 20.9899 12.9035 20.565 13.0342C17.5417 14.0311 14.2405 14.0311 11.2498 13.0342Z" fill="white"/>
<path d="M20.5323 16.8096C17.5417 17.8065 14.2405 17.8065 11.2498 16.8096C10.8249 16.6625 10.3673 16.8913 10.2203 17.3326C10.0732 17.7575 10.302 18.2151 10.7432 18.3621C12.4101 18.9178 14.1588 19.1956 15.9074 19.1956C17.6561 19.1956 19.4047 18.9178 21.0716 18.3621C21.4965 18.2151 21.7253 17.7575 21.5946 17.3326C21.4148 16.9077 20.9572 16.6789 20.5323 16.8096Z" fill="white"/>
</svg>
