<svg width="33" height="32" viewBox="0 0 33 32" fill="none" xmlns="http://www.w3.org/2000/svg">
<path d="M26.9708 27.2949H13.521C13.1778 26.347 12.279 25.6606 11.2167 25.6606C10.1545 25.6606 9.25565 26.347 8.91246 27.2949H5.72569C5.2681 27.2949 4.90857 27.6544 4.90857 28.112C4.90857 28.5696 5.2681 28.9291 5.72569 28.9291H8.91246C9.25565 29.877 10.1545 30.5634 11.2167 30.5634C12.279 30.5634 13.1778 29.877 13.521 28.9291H26.9708C27.4284 28.9291 27.7879 28.5696 27.7879 28.112C27.7879 27.6544 27.4284 27.2949 26.9708 27.2949ZM11.2331 28.9291C10.7755 28.9291 10.416 28.5696 10.416 28.112C10.416 27.6544 10.7755 27.2949 11.2331 27.2949C11.6907 27.2949 12.0502 27.6544 12.0502 28.112C12.0502 28.5696 11.6743 28.9291 11.2331 28.9291Z" fill="white"/>
<g opacity="0.5">
<path d="M24.928 13.2568H26.5622C27.0198 13.2568 27.3793 12.8973 27.3793 12.4397C27.3793 11.9821 27.0198 11.6226 26.5622 11.6226H24.928C24.4704 11.6226 24.1108 11.9821 24.1108 12.4397C24.1108 12.8973 24.4867 13.2568 24.928 13.2568Z" fill="white"/>
<path d="M15.9397 18.9768C19.5513 18.9768 22.4766 16.0515 22.4766 12.4398C22.4766 8.82812 19.5513 5.90283 15.9397 5.90283C12.328 5.90283 9.40271 8.82812 9.40271 12.4398C9.40271 16.0515 12.3443 18.9768 15.9397 18.9768ZM15.9397 7.53707C18.6362 7.53707 20.8424 9.7433 20.8424 12.4398C20.8424 15.1363 18.6362 17.3425 15.9397 17.3425C13.2432 17.3425 11.037 15.1363 11.037 12.4398C11.037 9.7433 13.2432 7.53707 15.9397 7.53707Z" fill="white"/>
<path d="M15.9397 4.26848C16.3973 4.26848 16.7568 3.90895 16.7568 3.45136V1.81712C16.7568 1.35953 16.3973 1 15.9397 1C15.4821 1 15.1226 1.35953 15.1226 1.81712V3.45136C15.1226 3.90895 15.4984 4.26848 15.9397 4.26848Z" fill="white"/>
<path d="M9.01054 6.65463C9.17396 6.81805 9.38641 6.89976 9.58252 6.89976C9.77863 6.89976 10.0074 6.81805 10.1545 6.65463C10.4814 6.32778 10.4814 5.82116 10.1545 5.49431L8.99419 4.334C8.66735 4.00716 8.16073 4.00716 7.83388 4.334C7.50703 4.66085 7.50703 5.16747 7.83388 5.49431L9.01054 6.65463Z" fill="white"/>
<path d="M6.95136 13.2568C7.40895 13.2568 7.76848 12.8973 7.76848 12.4397C7.76848 11.9821 7.40895 11.6226 6.95136 11.6226H5.31712C4.85953 11.6226 4.5 11.9821 4.5 12.4397C4.5 12.8973 4.85953 13.2568 5.31712 13.2568H6.95136Z" fill="white"/>
<path d="M9.01055 18.2251L7.85024 19.3854C7.52339 19.7123 7.52339 20.2189 7.85024 20.5457C8.01366 20.7092 8.22611 20.7909 8.42222 20.7909C8.61833 20.7909 8.84713 20.7092 8.99421 20.5457L10.1545 19.3854C10.4814 19.0586 10.4814 18.552 10.1545 18.2251C9.82767 17.8983 9.3374 17.8983 9.01055 18.2251Z" fill="white"/>
<path d="M15.1226 21.428V23.0622C15.1226 23.5198 15.4821 23.8793 15.9397 23.8793C16.3973 23.8793 16.7568 23.5198 16.7568 23.0622V21.428C16.7568 20.9704 16.3973 20.6108 15.9397 20.6108C15.4821 20.6108 15.1226 20.9704 15.1226 21.428Z" fill="white"/>
<path d="M22.8852 18.2251C22.5583 17.8983 22.0517 17.8983 21.7249 18.2251C21.398 18.552 21.398 19.0586 21.7249 19.3854L22.8852 20.5457C23.0486 20.7092 23.2611 20.7909 23.4572 20.7909C23.6533 20.7909 23.8821 20.7092 24.0292 20.5457C24.356 20.2189 24.356 19.7123 24.0292 19.3854L22.8852 18.2251Z" fill="white"/>
<path d="M22.2968 6.89976C22.5093 6.89976 22.7217 6.81805 22.8688 6.65463L24.0291 5.49431C24.356 5.16747 24.356 4.66085 24.0291 4.334C23.7023 4.00716 23.1957 4.00716 22.8688 4.334L21.7085 5.49431C21.3817 5.82116 21.3817 6.32778 21.7085 6.65463C21.8883 6.81805 22.1007 6.89976 22.2968 6.89976Z" fill="white"/>
</g>
</svg>
